<svg xmlns="http://www.w3.org/2000/svg" width="57" height="57">
    <path fill="#1C222D" fill-rule="evenodd" d="M49.471 56.918H7.913c-3.98 0-7.218-3.237-7.218-7.217V8.142c0-3.98 3.238-7.218 7.218-7.218h41.558c3.98 0 7.218 3.238 7.218 7.218v41.559c0 3.98-3.238 7.217-7.218 7.217zm5.031-48.776a5.037 5.037 0 0 0-5.031-5.031H7.913a5.037 5.037 0 0 0-5.031 5.031v41.559a5.037 5.037 0 0 0 5.031 5.031h41.558a5.037 5.037 0 0 0 5.031-5.031V8.142zm-8.273 33.867h-4.045a4.145 4.145 0 0 1-2.956-1.249l-4.045-4.159a4.753 4.753 0 0 0-2.189-1.284v3.866a2.83 2.83 0 0 1-2.826 2.826 16.635 16.635 0 0 1-10.05-3.403 28.916 28.916 0 0 1-3.077-2.721 1.094 1.094 0 0 1 1.562-1.532 26.82 26.82 0 0 0 2.843 2.515 14.436 14.436 0 0 0 8.723 2.953.638.638 0 0 0 .637-.638v-4.086c0-.613.274-1.186.752-1.57a2.005 2.005 0 0 1 1.695-.397 6.948 6.948 0 0 1 3.498 1.945l4.045 4.16a1.95 1.95 0 0 0 1.388.586h4.045c.026 0 .104 0 .154-.09a.163.163 0 0 0-.003-.178l-.555-.907a21.726 21.726 0 0 0-3.544-4.386l-1.855-1.767a2.658 2.658 0 0 1-.345-3.474l2.533-3.61c.315-.449.605-.921.864-1.404l2.164-4.05c.008-.015.019-.035-.001-.07-.021-.034-.045-.034-.061-.034l-4.686-.006a.285.285 0 0 0-.262.171l-.497 1.131a30.162 30.162 0 0 1-5.673 8.576 1.755 1.755 0 0 1-.549.393l-.451.206a1.87 1.87 0 0 1-1.794-.129 1.87 1.87 0 0 1-.862-1.578v-8.771h-6.215l.224.312a5.864 5.864 0 0 1 1.106 3.439v6.848c0 .781-.47 1.468-1.198 1.75a1.863 1.863 0 0 1-2.062-.48c-.961-1.05-2.345-2.723-3.487-4.73-1.39-2.447-2.374-5.261-2.837-6.72a.599.599 0 0 0-.573-.419h-4.657l.861 3.057a26.799 26.799 0 0 0 2.049 5.151 1.094 1.094 0 0 1-1.938 1.015 28.928 28.928 0 0 1-2.216-5.573l-.886-3.142a2.107 2.107 0 0 1 .351-1.855 2.103 2.103 0 0 1 1.69-.84h4.746c1.221 0 2.288.781 2.658 1.945.436 1.378 1.362 4.027 2.654 6.3.843 1.484 1.84 2.775 2.658 3.725v-6.032c0-.781-.24-1.528-.696-2.163l-.464-.646a1.978 1.978 0 0 1 1.605-3.129h6.636c1.201 0 2.179.977 2.179 2.178v8.256a27.975 27.975 0 0 0 5.138-7.823l.497-1.131a2.472 2.472 0 0 1 2.265-1.479h.003l4.686.005a2.24 2.24 0 0 1 1.934 1.098c.411.687.431 1.519.054 2.225l-2.165 4.05a15.536 15.536 0 0 1-1.002 1.629l-2.533 3.611a.486.486 0 0 0 .063.634l1.855 1.766a23.895 23.895 0 0 1 3.901 4.828l.555.906a2.366 2.366 0 0 1-2.016 3.599z"/>
</svg>
