<svg xmlns="http://www.w3.org/2000/svg" width="134" height="182">
    <path fill="#DF2934" fill-rule="evenodd" d="M120.532 148.043H13c-7.022 0-12.734-5.713-12.734-12.734v-2.83a1.414 1.414 0 1 1 2.83 0v2.83c0 5.46 4.443 9.904 9.904 9.904h107.532c5.46 0 9.904-4.444 9.904-9.904v-2.83a1.414 1.414 0 1 1 2.83 0v2.83c0 7.021-5.713 12.734-12.734 12.734zm0-14.149h-12.734v4.245c0 .782-.633 1.414-1.415 1.414a1.413 1.413 0 0 1-1.415-1.414v-4.245H87.989v4.245c0 .782-.633 1.414-1.415 1.414a1.413 1.413 0 0 1-1.415-1.414v-4.245H68.181v4.245c0 .782-.633 1.414-1.415 1.414a1.413 1.413 0 0 1-1.415-1.414v-4.245H48.372v4.245c0 .782-.633 1.414-1.415 1.414a1.413 1.413 0 0 1-1.415-1.414v-4.245H28.564v4.245c0 .782-.633 1.414-1.415 1.414a1.413 1.413 0 0 1-1.415-1.414v-4.245H13c-7.022 0-12.734-5.713-12.734-12.734V13.627C.266 6.605 5.978.894 13 .894h107.532c7.021 0 12.734 5.711 12.734 12.733V121.16c0 7.021-5.713 12.734-12.734 12.734zm9.904-120.267c0-5.46-4.444-9.903-9.904-9.903H13c-5.461 0-9.904 4.444-9.904 9.903V121.16c0 5.46 4.443 9.904 9.904 9.904h107.532c5.46 0 9.904-4.444 9.904-9.904V13.627zm-63.67 114.607c-33.549 0-60.841-27.291-60.841-60.84 0-33.547 27.292-60.841 60.841-60.841 33.548 0 60.84 27.294 60.84 60.841 0 33.549-27.292 60.84-60.84 60.84zm0-118.851c-31.988 0-58.011 26.023-58.011 58.011 0 31.987 26.023 58.01 58.011 58.01 31.987 0 58.01-26.023 58.01-58.01 0-31.988-26.023-58.011-58.01-58.011zm23.337 103.76a4.414 4.414 0 0 1-.381.017c-7.53 0-15.467-19.864-17.004-23.908a1.417 1.417 0 0 1 2.648-1.005c3.52 9.257 10.233 22.085 14.311 22.085.059 0 .114-.003.172-.008 13.096-1.188 22.163-16.6 22.254-16.756.343-.611 1.904-3.798-1.556-5.796-3.493-2.017-10.357.572-12.709 1.735-.425.21-.926.192-1.334-.043L84.25 82.389a1.412 1.412 0 0 1-.516-1.933 1.414 1.414 0 0 1 1.931-.518l11.618 6.708c2.349-1.046 9.976-4.044 14.679-1.324 2.465 1.423 3.737 3.636 3.579 6.235-.111 1.859-.898 3.272-.99 3.427-.395.686-9.879 16.835-24.448 18.159zm-1.431-39.977a1.413 1.413 0 0 1-1.169-1.624 1.423 1.423 0 0 1 1.622-1.17c9.907 1.601 24.653 2.199 26.36-1.502 5.522-11.939-3.294-27.497-3.385-27.652-.353-.604-2.343-3.548-5.797-1.552-3.471 2.002-4.679 9.251-4.85 11.874-.03.472-.296.898-.705 1.134l-12.253 7.078a1.414 1.414 0 0 1-1.932-.519 1.414 1.414 0 0 1 .517-1.933l11.618-6.709c.271-2.558 1.489-10.662 6.19-13.376 4.852-2.803 8.442.471 9.663 2.588.398.687 9.645 16.973 3.504 30.255-1.605 3.471-7.834 4.428-14.215 4.428-6.417 0-12.991-.968-15.168-1.32zm-5.953-21.857a1.416 1.416 0 0 1-1.992.203 1.415 1.415 0 0 1-.202-1.99c6.348-7.787 14.229-20.25 11.88-23.583-7.597-10.772-25.46-10.896-25.639-10.896-.702.007-4.245.25-4.245 4.244 0 4.023 5.673 8.685 7.86 10.142.392.263.629.705.629 1.178v14.149a1.414 1.414 0 1 1-2.829 0V31.34c-2.079-1.513-8.49-6.623-8.49-12.053 0-5.596 4.629-7.074 7.075-7.074.793 0 19.521.138 27.949 12.096 4.422 6.271-9.219 23.591-11.996 27zM59.992 47.36a1.416 1.416 0 0 1-1.827-.82c-3.52-9.259-10.235-22.085-14.311-22.085-.058 0-.113.003-.172.008-13.123 1.191-22.162 16.599-22.254 16.755-.343.612-1.904 3.8 1.554 5.797 3.465 2.003 10.357-.575 12.712-1.735a1.408 1.408 0 0 1 1.334.043l12.254 7.075c.677.391.909 1.256.516 1.933a1.412 1.412 0 0 1-1.932.518l-11.617-6.708c-2.352 1.04-9.982 4.034-14.683 1.325-4.844-2.799-3.811-7.544-2.586-9.663.395-.687 9.876-16.836 24.448-18.158 7.619-.719 15.824 19.78 17.385 23.889a1.418 1.418 0 0 1-.821 1.826zM44.86 61.62a1.41 1.41 0 0 1 1.168 1.621 1.42 1.42 0 0 1-1.621 1.172c-9.913-1.601-24.65-2.196-26.361 1.504-5.521 11.938 3.294 27.495 3.385 27.649.357.606 2.338 3.551 5.795 1.556 3.482-2.01 4.684-9.255 4.853-11.878.03-.472.296-.898.704-1.134l12.254-7.075a1.412 1.412 0 0 1 1.932.518c.392.678.16 1.542-.517 1.934l-11.618 6.706c-.271 2.558-1.492 10.665-6.193 13.382-1.335.77-2.576 1.079-3.698 1.079-2.948 0-5.079-2.139-5.963-3.673-.398-.687-9.644-16.971-3.504-30.251 3.219-6.963 25.04-3.812 29.384-3.11zm3.512 5.774C48.372 57.252 56.624 49 66.766 49c10.141 0 18.393 8.252 18.393 18.394 0 10.141-8.252 18.393-18.393 18.393-10.142 0-18.394-8.252-18.394-18.393zm18.394 15.564c8.58 0 15.563-6.982 15.563-15.564 0-8.583-6.983-15.565-15.563-15.565-8.581 0-15.564 6.982-15.564 15.565 0 8.582 6.983 15.564 15.564 15.564zM55.447 65.976h2.829a1.414 1.414 0 1 1 0 2.83h-2.829a1.414 1.414 0 1 1 0-2.83zm.809 5.848l2.449-1.414a1.41 1.41 0 0 1 1.931.518c.393.675.16 1.542-.516 1.933l-2.449 1.415a1.412 1.412 0 0 1-1.931-.518 1.415 1.415 0 0 1 .516-1.934zm5.035 2.212a1.415 1.415 0 0 1 2.454 1.412l-1.412 2.454a1.415 1.415 0 0 1-2.454-1.412l1.412-2.454zm5.475.429c.782 0 1.415.633 1.415 1.415v2.833c0 .782-.633 1.414-1.415 1.414a1.413 1.413 0 0 1-1.415-1.414V75.88c0-.782.632-1.415 1.415-1.415zm3.537-.946a1.416 1.416 0 0 1 1.932.518l1.414 2.451a1.412 1.412 0 0 1-1.224 2.122c-.486 0-.964-.254-1.224-.707l-1.415-2.451a1.414 1.414 0 0 1 .517-1.933zm2.589-2.591a1.418 1.418 0 0 1 1.932-.518l2.451 1.415a1.414 1.414 0 0 1-.708 2.64 1.42 1.42 0 0 1-.707-.189l-2.451-1.415a1.414 1.414 0 0 1-.517-1.933zm.945-3.537c0-.782.633-1.415 1.415-1.415h2.833a1.414 1.414 0 1 1 0 2.83h-2.833a1.414 1.414 0 0 1-1.415-1.415zm3.438-4.434l-2.454 1.418a1.413 1.413 0 0 1-1.932-.519 1.414 1.414 0 0 1 .517-1.933l2.454-1.417a1.414 1.414 0 1 1 1.415 2.451zm-5.043-2.205a1.415 1.415 0 0 1-2.449-1.418l1.418-2.451a1.413 1.413 0 0 1 1.932-.515 1.41 1.41 0 0 1 .516 1.932l-1.417 2.452zm-5.466-.433a1.414 1.414 0 0 1-1.415-1.415v-2.83a1.414 1.414 0 1 1 2.83 0v2.83c0 .782-.633 1.415-1.415 1.415zm0 2.83a4.25 4.25 0 0 1 4.244 4.245 4.248 4.248 0 0 1-4.244 4.244 4.249 4.249 0 0 1-4.245-4.244 4.25 4.25 0 0 1 4.245-4.245zm0 5.66c.779 0 1.415-.635 1.415-1.415 0-.781-.636-1.416-1.415-1.416-.78 0-1.415.635-1.415 1.416 0 .78.635 1.415 1.415 1.415zm-3.537-7.543a1.419 1.419 0 0 1-1.932-.518l-1.415-2.449a1.413 1.413 0 0 1 .517-1.933 1.413 1.413 0 0 1 1.932.518l1.414 2.448a1.414 1.414 0 0 1-.516 1.934zm-2.59 2.588a1.412 1.412 0 0 1-1.932.518l-2.451-1.415a1.416 1.416 0 0 1 1.415-2.451l2.451 1.415c.677.39.909 1.255.517 1.933zm-9.827 19.627a1.419 1.419 0 0 1 1.993-.203c.605.494.693 1.386.201 1.991-6.348 7.786-14.226 20.249-11.88 23.579 7.597 10.773 25.46 10.897 25.639 10.897.702-.008 4.245-.249 4.245-4.245 0-4.024-5.673-8.683-7.859-10.142a1.415 1.415 0 0 1-.63-1.177V90.034a1.414 1.414 0 1 1 2.83 0v13.412c2.078 1.514 8.489 6.624 8.489 12.054 0 5.596-4.629 7.074-7.074 7.074-.793 0-19.522-.137-27.95-12.095-4.422-6.27 9.216-23.589 11.996-26.998zm66.89-62.779a4.249 4.249 0 0 1-4.245-4.244 4.25 4.25 0 0 1 4.245-4.245 4.25 4.25 0 0 1 4.245 4.245 4.25 4.25 0 0 1-4.245 4.244zm0-5.659c-.78 0-1.415.634-1.415 1.415s.635 1.415 1.415 1.415c.779 0 1.415-.634 1.415-1.415s-.636-1.415-1.415-1.415zM13 20.702a4.249 4.249 0 0 1-4.245-4.244A4.25 4.25 0 0 1 13 12.213a4.25 4.25 0 0 1 4.244 4.245A4.249 4.249 0 0 1 13 20.702zm0-5.659c-.78 0-1.415.634-1.415 1.415s.635 1.415 1.415 1.415c.779 0 1.415-.634 1.415-1.415s-.636-1.415-1.415-1.415zm0 99.042a4.25 4.25 0 0 1 4.244 4.245A4.248 4.248 0 0 1 13 122.574a4.249 4.249 0 0 1-4.245-4.244A4.25 4.25 0 0 1 13 114.085zm0 5.66c.779 0 1.415-.636 1.415-1.415 0-.78-.636-1.415-1.415-1.415-.78 0-1.415.635-1.415 1.415 0 .779.635 1.415 1.415 1.415zm104.702-5.66a4.25 4.25 0 0 1 4.245 4.245 4.25 4.25 0 0 1-4.245 4.244 4.249 4.249 0 0 1-4.245-4.244 4.25 4.25 0 0 1 4.245-4.245zm0 5.66c.779 0 1.415-.636 1.415-1.415 0-.78-.636-1.415-1.415-1.415-.78 0-1.415.635-1.415 1.415 0 .779.635 1.415 1.415 1.415zm-89.661 36.701a1.412 1.412 0 0 1-1.954-.428l-1.901-2.968a1.414 1.414 0 1 1 2.382-1.525l1.901 2.968c.423.657.23 1.531-.428 1.953zm-10.144-5.35a1.41 1.41 0 0 1 1.953.429l8.396 13.104a1.414 1.414 0 0 1-2.383 1.526l-8.395-13.105a1.413 1.413 0 0 1 .429-1.954zm29.06 25.245h-5.659a4.25 4.25 0 0 1-4.245-4.245v-19.808a1.415 1.415 0 1 1 2.83 0v19.808c0 .779.635 1.415 1.415 1.415h5.659a1.414 1.414 0 1 1 0 2.83zm-14.149-25.469c.782 0 1.415.633 1.415 1.416v19.808a7.08 7.08 0 0 0 7.075 7.074h5.659a1.414 1.414 0 1 1 0 2.83h-5.659c-5.461 0-9.905-4.444-9.905-9.904v-19.808c0-.783.633-1.416 1.415-1.416zm19.809 5.66h9.904v-4.244a1.415 1.415 0 1 1 2.83 0v4.244h2.83v-4.244a1.415 1.415 0 1 1 2.829 0v4.244h9.905c.782 0 1.414.633 1.414 1.415v22.635c0 .782-.632 1.415-1.414 1.415H52.617a1.413 1.413 0 0 1-1.415-1.414v-22.636c0-.782.632-1.415 1.415-1.415zm1.415 22.636H79.5v-19.806H54.032v19.806zm18.393-2.827a1.414 1.414 0 0 1-1.415-1.415v-1.415h-8.489v1.415a1.414 1.414 0 1 1-2.83 0v-2.83c0-.782.633-1.415 1.415-1.415h11.319c.782 0 1.415.633 1.415 1.415v2.83c0 .782-.633 1.415-1.415 1.415zm-2.829-8.49h-5.66a1.414 1.414 0 1 1 0-2.83h5.66c.782 0 1.414.633 1.414 1.416 0 .781-.632 1.414-1.414 1.414zm16.978 5.66h5.66c.779 0 1.415-.636 1.415-1.415v-19.808a1.414 1.414 0 1 1 2.829 0v19.808a4.25 4.25 0 0 1-4.244 4.245h-5.66a1.414 1.414 0 1 1 0-2.83zm0 5.659h5.66a7.08 7.08 0 0 0 7.074-7.074v-19.808a1.415 1.415 0 1 1 2.83 0v19.808c0 5.46-4.444 9.904-9.904 9.904h-5.66a1.414 1.414 0 1 1 0-2.83zm20.389-27.645a1.413 1.413 0 1 1 2.382 1.525l-1.901 2.968a1.412 1.412 0 0 1-1.954.428 1.413 1.413 0 0 1-.428-1.953l1.901-2.968zm6.718 0a1.41 1.41 0 0 1 1.953-.429c.658.423.852 1.296.429 1.954l-8.395 13.105a1.413 1.413 0 0 1-1.954.428 1.413 1.413 0 0 1-.428-1.954l8.395-13.104z"/>
</svg>
