<svg xmlns="http://www.w3.org/2000/svg" width="177" height="183">
    <path fill="#DF2934" fill-rule="evenodd" d="M175.572 182.767H1.946a1.422 1.422 0 0 1-1.423-1.423V161.42c0-12.217 6.328-16.895 18.003-21.259 12.293-4.592 22.069-8.836 28.271-12.275a1.416 1.416 0 0 1 1.934.551c.382.69.134 1.556-.553 1.935-6.323 3.51-16.233 7.816-28.656 12.458-10.944 4.085-16.153 7.91-16.153 18.59v18.501h79.698v-38.425a1.422 1.422 0 1 1 2.846 0v38.425h5.693v-38.425a1.422 1.422 0 1 1 2.846 0v38.425h79.697V161.42c0-10.68-5.21-14.505-16.153-18.59-12.636-4.731-22.278-8.92-28.658-12.455a1.424 1.424 0 0 1 1.38-2.491c6.256 3.469 15.771 7.602 28.277 12.278 11.674 4.364 18.001 9.041 18.001 21.258v19.924a1.423 1.423 0 0 1-1.424 1.423zm-64.35-37.562c-.124.16-.273.29-.445.383-.031.017-.062.026-.094.041a1.42 1.42 0 0 1-.577.136c-.192 0-.379-.053-.56-.132-.025-.011-.052-.006-.076-.018l-17.078-8.539a1.423 1.423 0 1 1 1.273-2.546l15.991 7.995 13.259-18.563v-5.238a1.423 1.423 0 1 1 2.847 0v5.693c0 .053-.025.098-.031.15-.01.095-.026.184-.055.276a1.378 1.378 0 0 1-.122.271c-.025.043-.03.091-.059.132l-14.232 19.924c-.011.015-.029.02-.041.035zm4.577 31.869a1.422 1.422 0 0 1-1.423-1.422v-5.693c0-.787.637-1.423 1.423-1.423H144.262c.787 0 1.423.636 1.423 1.423v5.693c0 .786-.636 1.422-1.423 1.422a1.421 1.421 0 0 1-1.423-1.422v-4.27h-25.617v4.27c0 .786-.636 1.422-1.423 1.422zm11.385-16.488l-7.532 7.533a1.42 1.42 0 0 1-2.013 0 1.425 1.425 0 0 1 0-2.013l8.539-8.539a1.423 1.423 0 0 1 2.013 0l8.539 8.539a1.425 1.425 0 0 1-1.007 2.43 1.42 1.42 0 0 1-1.006-.417l-7.533-7.533zm4.687-1.006a1.423 1.423 0 0 1 2.012-2.013l8.539 8.539a1.423 1.423 0 0 1-2.012 2.013l-8.539-8.539zm-43.055-19.508h.028a1.423 1.423 0 0 1 0 2.846 1.434 1.434 0 0 1-1.437-1.422 1.41 1.41 0 0 1 1.409-1.424zm0 11.385h.028a1.423 1.423 0 0 1 0 2.846 1.434 1.434 0 0 1-1.437-1.422 1.41 1.41 0 0 1 1.409-1.424zm.028 22.771a1.423 1.423 0 0 1 0 2.846 1.434 1.434 0 0 1-1.437-1.422 1.41 1.41 0 0 1 1.409-1.424h.028zm-.028-11.385h.028a1.422 1.422 0 1 1 0 2.846 1.435 1.435 0 0 1-1.437-1.423 1.41 1.41 0 0 1 1.409-1.423zm-34.213-44.119v5.236l13.261 18.565 15.989-7.995a1.423 1.423 0 1 1 1.273 2.546l-17.078 8.539c-.025.012-.052.008-.078.018-.18.079-.367.132-.557.132-.201 0-.394-.055-.576-.136-.033-.015-.065-.025-.097-.042a1.415 1.415 0 0 1-.442-.379c-.012-.016-.032-.021-.044-.038l-14.232-19.924c-.03-.043-.036-.093-.061-.138a1.345 1.345 0 0 1-.118-.262 1.346 1.346 0 0 1-.056-.281c-.006-.051-.03-.095-.03-.148v-5.693a1.422 1.422 0 0 1 2.846 0zm-15.655-49.81c.787 0 1.424.636 1.424 1.423 0 31.646 29.721 58.35 48.387 58.35 18.668 0 48.388-26.704 48.388-58.35a1.422 1.422 0 1 1 2.846 0c0 33.188-31.471 61.196-51.234 61.196-19.764 0-51.234-28.008-51.234-61.196 0-.787.637-1.423 1.423-1.423zm99.899-2.874a1.413 1.413 0 0 1-1.492-.653l-11.877-19.421c-4.503 1.744-21.364 7.836-37.125 7.836-15.713 0-32.367-6.059-36.883-7.823L40.178 65.361a1.423 1.423 0 0 1-2.647-.585c-1.786-19.07 2.3-34.219 12.144-45.027C64.087 3.923 87.725.602 105.02.602c10.101 0 17.603 1.166 18.426 1.299a1.423 1.423 0 0 1 .314 2.721c-10.179 4.189-8.528 14.322-7.677 17.624.286-.013.617-.023.989-.023 4.044 0 11.672.986 17.32 7.584 6.201 7.243 8.081 19.038 5.584 35.057a1.423 1.423 0 0 1-1.129 1.176zm-6.615-34.383c-4.909-5.731-11.605-6.588-15.16-6.588-1.103 0-1.789.088-1.834.095a1.439 1.439 0 0 1-1.54-.944c-.05-.144-4.392-13.079 5.059-20.053a131.69 131.69 0 0 0-13.737-.719c-16.72 0-39.529 3.161-53.24 18.218-8.49 9.322-12.428 22.179-11.73 38.261l9.58-16.442a1.424 1.424 0 0 1 1.779-.598c.193.081 19.528 8.068 36.945 8.068 17.422 0 36.971-7.989 37.169-8.069a1.425 1.425 0 0 1 1.756.572l10.418 17.032c1.504-13.145-.331-22.833-5.465-28.833z"/>
</svg>
