<svg xmlns="http://www.w3.org/2000/svg" width="57" height="57">
    <path fill="#1C222D" fill-rule="evenodd" d="M45.646 56.927h-8.094c-.604 0-1.094-.49-1.094-1.094V34.339c0-.604.49-1.094 1.094-1.094h6.447l.566-5.628h-7.013c-.604 0-1.094-.49-1.094-1.094v-5.198c0-2.367 1.649-3.207 3.061-3.207h5.112v-5.432h-7.057c-7.326 0-8.117 5.733-8.117 8.197v5.689c0 .604-.489 1.094-1.094 1.094h-5.359v5.579h5.359c.605 0 1.094.49 1.094 1.094v4.211a1.094 1.094 0 1 1-2.187 0v-3.117h-5.36c-.604 0-1.094-.49-1.094-1.094v-7.767c0-.604.49-1.094 1.094-1.094h5.36v-4.595c0-1.463.259-4.273 1.995-6.654 1.242-1.701 3.691-3.73 8.309-3.73h8.151c.604 0 1.094.489 1.094 1.094v7.62c0 .604-.49 1.093-1.094 1.093h-6.206c-.637 0-.874.277-.874 1.019v4.104h7.129c.309 0 .604.131.812.36.207.23.307.536.277.844l-.787 7.816a1.093 1.093 0 0 1-1.088.984h-6.343v19.306h7.001c4.704 0 8.532-3.828 8.532-8.532V11.642c0-4.704-3.828-8.532-8.532-8.532H11.081c-4.704 0-8.532 3.828-8.532 8.532v34.565c0 4.704 3.828 8.532 8.532 8.532H27.27v-7.383a1.094 1.094 0 1 1 2.187 0v8.477c0 .604-.489 1.094-1.093 1.094H11.081C5.17 56.927.362 52.118.362 46.207V11.642C.362 5.731 5.17.923 11.081.923h34.565c5.911 0 10.72 4.808 10.72 10.719v34.565c0 5.911-4.809 10.72-10.72 10.72z"/>
</svg>
