<svg xmlns="http://www.w3.org/2000/svg" width="57" height="57">
    <path fill="#1C222D" fill-rule="evenodd" d="M40.277 56.918H17.092C8.046 56.918.687 49.559.687 40.514V17.328C.687 8.283 8.046.924 17.092.924h23.185c9.046 0 16.404 7.359 16.404 16.404v23.186c0 9.045-7.358 16.404-16.404 16.404zm14.217-39.59c0-7.839-6.378-14.217-14.217-14.217H17.092c-7.84 0-14.218 6.378-14.218 14.217v23.186c0 7.839 6.378 14.217 14.218 14.217h23.185c7.839 0 14.217-6.378 14.217-14.217V17.328zM40.277 52.107h-6.599a1.094 1.094 0 0 1 0-2.188h6.599c5.186 0 9.405-4.219 9.405-9.405V17.328c0-5.185-4.219-9.405-9.405-9.405H17.092c-5.187 0-9.406 4.22-9.406 9.405v23.186c0 5.186 4.219 9.405 9.406 9.405h6.671a1.093 1.093 0 0 1 0 2.188h-6.671c-6.393 0-11.593-5.201-11.593-11.593V17.328c0-6.392 5.2-11.592 11.593-11.592h23.185c6.392 0 11.593 5.2 11.593 11.592v23.186c0 6.392-5.201 11.593-11.593 11.593zM28.684 19.078c5.428 0 9.843 4.416 9.843 9.843 0 5.428-4.415 9.843-9.843 9.843-5.427 0-9.843-4.415-9.843-9.843 0-5.427 4.416-9.843 9.843-9.843zm0 17.499c4.221 0 7.656-3.435 7.656-7.656s-3.435-7.656-7.656-7.656-7.655 3.435-7.655 7.656 3.434 7.656 7.655 7.656zm12.331-22.01c0-1.115.908-2.023 2.023-2.023 1.116 0 2.024.908 2.024 2.023a2.026 2.026 0 0 1-2.024 2.024 2.026 2.026 0 0 1-2.023-2.024zM28.684 44.013c-8.322 0-15.092-6.77-15.092-15.092 0-2.611.677-5.185 1.96-7.443a1.094 1.094 0 1 1 1.902 1.081 12.899 12.899 0 0 0-1.675 6.362c0 7.116 5.79 12.905 12.905 12.905 7.116 0 12.905-5.789 12.905-12.905S35.8 16.016 28.684 16.016c-2.084 0-4.073.481-5.91 1.43a1.094 1.094 0 0 1-1.003-1.944 15.14 15.14 0 0 1 6.913-1.674c8.322 0 15.093 6.771 15.093 15.093s-6.771 15.092-15.093 15.092z"/>
</svg>
